# xmcd
#
# Track frame offsets: 
#        150
#        14862
#        29237
#        41855
#        55967
#        68992
#        84197
#        98550
#        111080
#        123815
#        139405
#        154185
#        169957
#        183802
#        196510
#        209025
#        223112
#        235137
#        249980
#        262402
#        276725
#        290350
#        303025
#        316557
#        328797
#
# Disc length: 4558 seconds
#
# Revision: 1
# Processed by: cddbd v1.5.2PL0 Copyright (c) Steve Scherf et al.
# Submitted via: ExactAudioCopyFreeDBPlugin 1.0
#
DISCID=7c11cc19
DTITLE=Various Artist - The Story Of Pre-War Blues [CD4]
DYEAR=1994
DGENRE=Blues
TTITLE0=Pine Top's Boogie Woogie
TTITLE1=You Put It In, I'll Take It Out
TTITLE2=It's Tight Like That
TTITLE3=How Long - How Long Blues
TTITLE4=Southen Rag
TTITLE5=Back To The Woods Blues
TTITLE6="Ma" Rainey's Black Blues
TTITLE7=I Don't Know
TTITLE8=Long Tall Mama
TTITLE9=I'm Gonnna Tell My Mama On You
TTITLE10=You've Had Your Way
TTITLE11=Underneath The Harlem Moon
TTITLE12=Oh Red !
TTITLE13=Chant Of The Rain
TTITLE14=Standing By The Badside Of A Neighbor
TTITLE15=The Chicken And The Worm
TTITLE16=Got The Blues For The West End
TTITLE17=The Dirty Dozen
TTITLE18=I Cant Tell By The Way You Smell
TTITLE19=More Good Whisky Blues
TTITLE20=Two Street Blues
TTITLE21=Blue Day Blues
TTITLE22=Mean Old Twister
TTITLE23=Bad Luck Blues
TTITLE24=Chicago Breakdown
EXTD=
EXTT0=
EXTT1=
EXTT2=
EXTT3=
EXTT4=
EXTT5=
EXTT6=
EXTT7=
EXTT8=
EXTT9=
EXTT10=
EXTT11=
EXTT12=
EXTT13=
EXTT14=
EXTT15=
EXTT16=
EXTT17=
EXTT18=
EXTT19=
EXTT20=
EXTT21=
EXTT22=
EXTT23=
EXTT24=
PLAYORDER=
